<svg version="1.1" xmlns="http://www.w3.org/2000/svg" xmlns:xlink="http://www.w3.org/1999/xlink" x="0px" y="0px"
	 viewBox="0 0 488.157 488.157" style="enable-background:new 0 0 488.157 488.157;" xml:space="preserve">
<g>
	<g>
		<path d="M484.159,11.329c-4.6-7.1-12.4-11.3-20.7-11.3c-3.4,0-6.8,0.7-10,2.1l-435.7,190.9c-10.3,4.5-17,14.2-17.7,25.4
			c-0.7,11.2,4.9,21.7,14.5,27.3l142,83.7l88.1,144.5c5.4,8.9,14.9,14.2,25.3,14.2c11.9,0,22.6-7,27.3-17.9l188.8-435.5
			C489.459,27.029,488.659,18.229,484.159,11.329z M464.059,25.129l-188.8,435.7c-1.4,3.2-4.4,3.4-5.2,3.4c-1.2,0-3.4-0.4-4.8-2.7
			l-89.7-147.1c-1-1.7-2.5-3.1-4.1-4.1l-144.7-85.2c-2.7-1.6-2.8-4.2-2.8-5.2c0.1-1,0.5-3.6,3.4-4.9l435.6-190.9
			c0.2-0.1,0.3-0.1,0.4-0.1c0.2,0,0.5,0.2,0.7,0.5C464.159,24.629,464.259,24.829,464.059,25.129z"/>
		<path d="M223.859,245.629c-4.7,4.7-4.7,12.3-0.1,17c2.4,2.4,5.4,3.5,8.5,3.5c3,0,6.1-1.2,8.4-3.5c4.7-4.7,4.7-12.3,0.1-17
			S228.559,240.929,223.859,245.629z"/>
		<path d="M190.259,278.929c-4.7,4.7-4.7,12.3-0.1,17c2.4,2.4,5.4,3.5,8.5,3.5c3,0,6.1-1.2,8.4-3.5c4.7-4.7,4.7-12.3,0.1-17
			C202.559,274.229,194.959,274.229,190.259,278.929z"/>
		<path d="M290.859,179.029c-4.7,4.7-4.7,12.3-0.1,17c2.3,2.4,5.4,3.5,8.5,3.5s6.1-1.2,8.5-3.5c4.7-4.7,4.7-12.3,0.1-17
			C303.159,174.329,295.559,174.329,290.859,179.029z"/>
		<path d="M257.359,212.329c-4.7,4.7-4.7,12.3-0.1,17c2.3,2.4,5.4,3.5,8.5,3.5c3,0,6.1-1.2,8.4-3.5c4.7-4.7,4.7-12.3,0.1-17
			C269.659,207.629,262.059,207.629,257.359,212.329z"/>
		<path d="M425.059,45.829c-4.7,4.7-4.7,12.3-0.1,17c2.4,2.4,5.4,3.5,8.5,3.5c3,0,6.1-1.2,8.4-3.5c4.7-4.7,4.7-12.3,0.1-17
			S429.759,41.129,425.059,45.829z"/>
		<path d="M324.459,145.729c-4.7,4.7-4.7,12.3-0.1,17c2.3,2.4,5.4,3.5,8.5,3.5s6.1-1.2,8.5-3.5c4.7-4.7,4.7-12.3,0.1-17
			S329.159,141.029,324.459,145.729z"/>
		<path d="M391.559,79.129c-4.7,4.7-4.7,12.3-0.1,17c2.4,2.4,5.4,3.5,8.5,3.5s6.1-1.2,8.4-3.5c4.7-4.7,4.7-12.3,0.1-17
			S396.259,74.429,391.559,79.129z"/>
		<path d="M357.959,112.429c-4.7,4.7-4.7,12.3-0.1,17c2.4,2.4,5.4,3.5,8.5,3.5s6.1-1.2,8.5-3.5c4.7-4.7,4.7-12.3,0.1-17
			C370.259,107.729,362.659,107.729,357.959,112.429z"/>
	</g>
</g>
</svg>
