<svg version="1.1" xmlns="http://www.w3.org/2000/svg" xmlns:xlink="http://www.w3.org/1999/xlink" x="0px" y="0px"
	 viewBox="0 0 480 480" style="enable-background:new 0 0 480 480;" xml:space="preserve">
<g>
	<g>
		<path d="M240,0C134.1,0,47.9,86.2,47.9,192.1c0,12.1,1.1,24.3,3.4,36.2c0.1,0.6,0.5,2.8,1.3,6.3c2.9,13,7.3,25.7,12.9,37.9
			c20.8,49,66.6,124.2,167,204.9c2.2,1.8,4.9,2.6,7.5,2.6s5.3-0.9,7.5-2.6c100.4-80.7,146.2-155.9,167-204.9
			c5.6-12.1,9.9-24.9,12.9-37.9c0.9-3.6,1.2-5.8,1.3-6.4c2.3-11.9,3.4-24,3.4-36.1C432.1,86.2,345.9,0,240,0z M405,224
			c0,0.2-0.1,0.4-0.1,0.6c-0.1,0.5-0.4,2.1-1,4.5v0.1c-2.6,11.4-6.4,22.7-11.3,33.3c-0.1,0.1-0.1,0.2-0.2,0.4
			c-19.1,45.2-61.1,114.3-152.5,189.6c-91.4-75.3-133.3-144.4-152.5-189.6c-0.1-0.1-0.1-0.2-0.2-0.4c-4.9-10.7-8.7-21.9-11.3-33.3
			v-0.1c-0.6-2.5-0.9-4.1-1-4.5c0-0.2-0.1-0.4-0.1-0.6c-2-10.5-3-21.2-3-31.9C71.9,99.4,147.3,24,240,24s168.1,75.4,168.1,168.1
			C408.1,202.8,407.1,213.5,405,224z"/>
		<path d="M130.7,206.4c6.6,0,12-5.4,12-12v-0.1v-0.1c0-6.6-5.4-12-12-12s-12,5.4-12,12v0.1v0.1C118.7,201.1,124,206.4,130.7,206.4
			L130.7,206.4z"/>
		<path d="M166.8,124.9c2.9,0,5.7-1,8-3.1l0,0c4.9-4.4,5.3-12,0.9-17c-4.4-4.9-12-5.3-16.9-0.9l0,0c-4.9,4.4-5.3,12-0.9,17
			C160.3,123.6,163.5,124.9,166.8,124.9z"/>
		<path d="M250.1,97.3c0.4,0,0.8,0.1,1.2,0.1c6.1,0,11.3-4.6,11.9-10.8c0.7-6.6-4.1-12.5-10.7-13.2c-6.6-0.7-12.5,4.1-13.2,10.7
			S243.5,96.7,250.1,97.3z"/>
		<path d="M250.3,291c-6.6,0.7-11.4,6.6-10.7,13.2c0.6,6.2,5.9,10.7,11.9,10.7c0.4,0,0.8,0,1.3-0.1l0,0c6.6-0.7,11.4-6.6,10.7-13.2
			C262.8,295.1,256.9,290.3,250.3,291z"/>
		<path d="M210.1,286.8c-6.3-2-13.1,1.4-15.1,7.7c-2,6.3,1.4,13.1,7.7,15.1c1.2,0.4,2.5,0.6,3.7,0.6c5.1,0,9.8-3.2,11.4-8.3
			C219.8,295.6,216.4,288.9,210.1,286.8z"/>
		<path d="M206.2,102.2c1.2,0,2.5-0.2,3.7-0.6c6.3-2,9.8-8.8,7.7-15.1c-2-6.3-8.8-9.8-15.1-7.7c-6.3,2-9.8,8.8-7.7,15.1
			C196.4,98.9,201.1,102.2,206.2,102.2z"/>
		<path d="M288.6,109.8c1.9,1.1,4,1.6,6,1.6c4.2,0,8.2-2.1,10.4-6c3.3-5.7,1.3-13.1-4.4-16.4c-5.7-3.3-13.1-1.4-16.4,4.4
			C280.9,99.1,282.9,106.5,288.6,109.8z"/>
		<path d="M335.6,248.6c-5.4-3.9-12.9-2.7-16.8,2.7c-3.9,5.4-2.7,12.9,2.7,16.8c2.1,1.5,4.6,2.3,7,2.3c3.7,0,7.4-1.7,9.7-5
			C342.2,260,341,252.5,335.6,248.6z"/>
		<path d="M349.5,205c-6.5-1.4-12.8,2.8-14.2,9.3c-1.4,6.5,2.8,12.8,9.3,14.2c0.8,0.2,1.7,0.3,2.5,0.3c5.5,0,10.5-3.9,11.7-9.5l0,0
			C360.1,212.8,356,206.4,349.5,205z"/>
		<path d="M175,266.6c-4.9-4.4-12.5-4-17,0.9c-4.4,4.9-4,12.5,0.9,16.9c2.3,2.1,5.2,3.1,8,3.1c3.3,0,6.6-1.3,8.9-4
			C180.3,278.6,179.9,271.1,175,266.6z"/>
		<path d="M328.4,141.8c2.5,0,4.9-0.8,7.1-2.3c5.3-3.9,6.5-11.4,2.6-16.8l0,0c-3.9-5.4-11.4-6.5-16.8-2.6s-6.5,11.4-2.6,16.8
			C321.1,140.1,324.7,141.8,328.4,141.8z"/>
		<path d="M288.8,278.4c-5.7,3.3-7.7,10.7-4.4,16.4c2.2,3.8,6.3,6,10.4,6c2,0,4.1-0.5,6-1.6c5.7-3.3,7.7-10.7,4.4-16.4
			C301.9,277,294.5,275.1,288.8,278.4z"/>
		<path d="M344.5,159.6c-6.5,1.4-10.6,7.8-9.2,14.2c1.2,5.6,6.2,9.5,11.7,9.5c0.8,0,1.7-0.1,2.5-0.3c6.5-1.4,10.6-7.8,9.3-14.2
			C357.3,162.4,351,158.2,344.5,159.6z"/>
		<path d="M135.2,160.7c1.6,0.7,3.2,1,4.9,1c4.6,0,9-2.6,11-7.1c2.7-6.1,0-13.2-6.1-15.8c-6.1-2.7-13.2,0-15.9,6.1
			C126.4,150.9,129.1,158,135.2,160.7z"/>
		<path d="M135.3,227.9c-6,2.7-8.8,9.8-6,15.9c2,4.5,6.4,7.1,11,7.1c1.6,0,3.3-0.3,4.9-1.1c6-2.7,8.8-9.8,6-15.9
			C148.4,227.9,141.3,225.2,135.3,227.9z"/>
	</g>
</g>
</svg>
