<?xml version="1.0" encoding="utf-8"?>
<!-- Generator: Adobe Illustrator 21.1.0, SVG Export Plug-In . SVG Version: 6.00 Build 0)  -->
<svg version="1.1" id="Capa_1" xmlns="http://www.w3.org/2000/svg" xmlns:xlink="http://www.w3.org/1999/xlink" x="0px" y="0px"
	 viewBox="0 0 371.1 71.1" style="enable-background:new 0 0 371.1 71.1;" xml:space="preserve">
<style type="text/css">
	.st0{fill:#006FB7;}
	.st1{fill:#689FD1;}
	.st2{fill:#76AD1C;}
	.st3{fill:#B0CB7A;}
</style>
<path class="st0" d="M24.9,51.3c-0.2,0.1-0.1,0.4,0,0.6c0.1,0.7,0.2,1.3,0.2,1.8c0.1,3.1-2,3.9-4.2,2.5c-3.6-2.2-6.3-5.5-8.1-9.2
	C9,47,5.3,46.9,1.8,46.6c2.4,7.2,7,13.5,13.3,17.9c6.3,4.5,13.8,6.7,21.4,6.5L25.6,51.5C25.6,51.5,25.3,50.9,24.9,51.3"/>
<path class="st1" d="M1.8,46.6L1.8,46.6c0,0,4.8,0.5,11.1,0.3c-1.1-2.2-1.8-4.6-2.3-7.1c-2.1-12,4.7-23.5,15.6-27.8l-5-9
	C6.6,9.5-2.3,25.2,0.5,41.6C0.8,43.3,1.2,45,1.8,46.6"/>
<path class="st2" d="M60.8,38.7C59.6,47.7,53.6,55.6,45,59l5,9c13-5.7,21.6-18.9,21.2-33.4C68,36.1,64.5,37.4,60.8,38.7"/>
<path class="st3" d="M46.3,19.8c0.2-0.1,0.1-0.4,0-0.6c-0.1-0.7-0.2-1.3-0.2-1.8c-0.1-3.1,2-3.9,4.2-2.5c5.7,3.6,9.2,9.7,10.3,16.3
	c0.4,2.5,0.5,5,0.2,7.5c0,0,5.5-1.8,10.4-4.1c0-1.7-0.2-3.4-0.5-5.1C69.1,20.1,63.9,12,56.2,6.5C49.8,2.1,42.4-0.2,34.8,0l10.8,19.6
	C45.6,19.6,45.9,20.2,46.3,19.8"/>
<g>
	<path class="st0" d="M85.8,56.8v-7h1.1v7H85.8z"/>
	<path class="st0" d="M94,56.8l-3.2-4.9v4.9h-1.1v-7h1l3.2,4.9v-4.9H95v7H94z"/>
	<path class="st0" d="M102.1,56c-0.5,0.6-1.2,0.8-1.9,0.8c-0.7,0-1.4-0.3-1.8-0.7c-0.7-0.7-0.7-1.5-0.7-2.8c0-1.3,0-2.1,0.7-2.8
		c0.5-0.5,1.1-0.7,1.8-0.7c1.5,0,2.3,1,2.5,2.2h-1.1c-0.2-0.8-0.7-1.2-1.5-1.2c-0.4,0-0.8,0.2-1,0.4c-0.3,0.4-0.4,0.8-0.4,2.2
		c0,1.4,0.1,1.8,0.4,2.2c0.2,0.3,0.6,0.4,1,0.4c0.5,0,0.9-0.2,1.1-0.5c0.3-0.3,0.4-0.7,0.4-1.1v-0.4h-1.5V53h2.6v1.1
		C102.8,55,102.6,55.5,102.1,56z"/>
	<path class="st0" d="M105.4,56.8v-7h4.5v1h-3.4v2.1h2.9v0.9h-2.9v2.1h3.4v1H105.4z"/>
	<path class="st0" d="M116.8,56.8l-3.2-4.9v4.9h-1.1v-7h1l3.2,4.9v-4.9h1.1v7H116.8z"/>
	<path class="st0" d="M120.7,56.8v-7h1.1v7H120.7z"/>
	<path class="st0" d="M124.7,56.8v-7h4.5v1h-3.4v2.1h2.9v0.9h-2.9v2.1h3.4v1H124.7z"/>
	<path class="st0" d="M135.5,56.8l-1.5-3h-1.3v3h-1.1v-7h2.7c1.3,0,2.2,0.9,2.2,2.1c0,1-0.6,1.6-1.4,1.9l1.6,3.1H135.5z M134.3,50.7
		h-1.6v2.2h1.6c0.7,0,1.2-0.4,1.2-1.1C135.5,51.1,135,50.7,134.3,50.7z"/>
	<path class="st0" d="M139.2,56.8v-7h1.1v7H139.2z M140.1,49.1h-0.8l0.7-1.6h1.1L140.1,49.1z"/>
	<path class="st0" d="M147.2,56.8l-0.5-1.4H144l-0.5,1.4h-1.1l2.6-7h0.9l2.6,7H147.2z M145.4,51.3l-1.1,3.1h2.1L145.4,51.3z"/>
	<path class="st0" d="M158.2,56.1c-0.4,0.4-1.1,0.7-1.8,0.7h-2.5v-7h2.5c0.7,0,1.4,0.2,1.8,0.7c0.8,0.8,0.7,1.8,0.7,2.8
		C158.9,54.2,158.9,55.4,158.2,56.1z M157.5,51.2c-0.3-0.3-0.7-0.5-1.2-0.5H155v5.1h1.3c0.5,0,0.9-0.1,1.2-0.5
		c0.4-0.4,0.4-1.2,0.4-2.1C157.8,52.3,157.8,51.6,157.5,51.2z"/>
	<path class="st0" d="M161.6,56.8v-7h4.5v1h-3.4v2.1h2.9v0.9h-2.9v2.1h3.4v1H161.6z"/>
	<path class="st0" d="M173.9,56.8c-1,0-1.8-0.2-2.5-0.9l0.7-0.7c0.5,0.5,1.1,0.7,1.8,0.7c0.9,0,1.4-0.4,1.4-1.1
		c0-0.3-0.1-0.6-0.3-0.7c-0.2-0.2-0.4-0.2-0.8-0.3l-0.8-0.1c-0.6-0.1-1-0.3-1.3-0.6c-0.3-0.3-0.5-0.8-0.5-1.3c0-1.2,0.9-2.1,2.3-2.1
		c0.9,0,1.6,0.2,2.2,0.8l-0.7,0.7c-0.4-0.4-0.9-0.5-1.5-0.5c-0.8,0-1.3,0.5-1.3,1.1c0,0.3,0.1,0.5,0.3,0.7c0.2,0.2,0.5,0.3,0.8,0.3
		l0.8,0.1c0.6,0.1,1,0.3,1.3,0.5c0.4,0.3,0.6,0.8,0.6,1.4C176.4,56.1,175.4,56.8,173.9,56.8z"/>
	<path class="st0" d="M183.1,56.1c-0.5,0.5-1.1,0.7-1.8,0.7c-0.7,0-1.4-0.3-1.8-0.7c-0.7-0.7-0.7-1.5-0.7-2.8c0-1.3,0-2.1,0.7-2.8
		c0.5-0.5,1.1-0.7,1.8-0.7c0.7,0,1.4,0.3,1.8,0.7c0.7,0.7,0.7,1.5,0.7,2.8C183.7,54.6,183.8,55.4,183.1,56.1z M182.3,51.1
		c-0.2-0.3-0.6-0.4-1-0.4c-0.4,0-0.8,0.2-1,0.4c-0.3,0.4-0.4,0.8-0.4,2.2c0,1.4,0.1,1.8,0.4,2.2c0.2,0.3,0.6,0.4,1,0.4
		c0.4,0,0.8-0.2,1-0.4c0.3-0.4,0.4-0.8,0.4-2.2C182.7,51.9,182.6,51.5,182.3,51.1z"/>
	<path class="st0" d="M187.5,50.7v2.1h2.9v1h-2.9v3h-1.1v-7h4.5v1H187.5z"/>
	<path class="st0" d="M195.6,50.7v6.1h-1.1v-6.1h-1.9v-1h4.9v1H195.6z"/>
	<path class="st0" d="M205.6,56.8h-0.9l-1.4-4.9l-1.4,4.9h-0.9l-1.8-7h1.1l1.2,5l1.4-5h0.9l1.4,5l1.2-5h1.1L205.6,56.8z"/>
	<path class="st0" d="M213.6,56.8l-0.5-1.4h-2.8l-0.5,1.4h-1.1l2.6-7h0.9l2.6,7H213.6z M211.7,51.3l-1.1,3.1h2.1L211.7,51.3z"/>
	<path class="st0" d="M220.6,56.8l-1.5-3h-1.3v3h-1.1v-7h2.7c1.3,0,2.2,0.9,2.2,2.1c0,1-0.6,1.6-1.4,1.9l1.6,3.1H220.6z M219.4,50.7
		h-1.6v2.2h1.6c0.7,0,1.2-0.4,1.2-1.1C220.6,51.1,220.1,50.7,219.4,50.7z"/>
	<path class="st0" d="M224.3,56.8v-7h4.5v1h-3.4v2.1h2.9v0.9h-2.9v2.1h3.4v1H224.3z"/>
</g>
<g>
	<path class="st0" d="M87.4,36.9c1.5,3.6,6.2,3.6,8.7,2.9c1.8-0.5,3.3-1.6,3.3-3.3c0-2.9-2.9-3.3-5.8-3.6c-3.8-0.5-7.6-1-7.6-5.8
		c0-2.9,2.1-4.7,4.8-5.5c3.3-0.9,8.6-0.5,10.2,3l-1.7,1.1c-1.5-2.6-5.4-2.8-8-2c-1.8,0.5-3.3,1.7-3.3,3.4c0,2.9,2.9,3.3,5.8,3.6
		c3.8,0.5,7.6,1,7.6,5.8c0,2.8-2.1,4.6-4.8,5.3c-3.6,1-9.6,0.3-11.1-3.8L87.4,36.9z"/>
	<path class="st0" d="M105.3,12.7h2.4v3.7h-2.4V12.7z M105.4,21.5h2.1V42h-2.1V21.5z"/>
	<path class="st0" d="M113.6,36.9c1.5,3.6,6.2,3.6,8.7,2.9c1.8-0.5,3.3-1.6,3.3-3.3c0-2.9-2.9-3.3-5.8-3.6c-3.8-0.5-7.6-1-7.6-5.8
		c0-2.9,2.1-4.7,4.8-5.5c3.3-0.9,8.6-0.5,10.2,3l-1.7,1.1c-1.5-2.6-5.4-2.8-8-2c-1.8,0.5-3.3,1.7-3.3,3.4c0,2.9,2.9,3.3,5.8,3.6
		c3.8,0.5,7.6,1,7.6,5.8c0,2.8-2.1,4.6-4.8,5.3c-3.6,1-9.6,0.3-11.1-3.8L113.6,36.9z"/>
	<path class="st0" d="M135.1,12.7v8.8h5v1.9c-1.7,0-3.3,0-5,0v12.8c0,3.5,2.6,3.8,5.3,3.9v1.9c-3.8,0.2-7.4-1.2-7.4-5.8V23.4h-3.6
		v-1.9h3.6v-8.8H135.1z"/>
	<path class="st0" d="M145.3,36.3c0,0.7,0.1,1.2,0.5,1.8c0.7,1,2,1.6,3.5,1.9c1.1,0.2,2.2,0.2,3.3,0c1.5-0.2,3-0.8,3.9-2.1l1.8,1.1
		c-1.2,2-3.3,2.8-5.4,3.1c-1.3,0.2-2.4,0.3-3.6,0c-2.1-0.3-4-1.3-5.1-2.8c-0.7-1-0.9-2-0.9-3.2v-9.3c0-2.8,2.1-4.5,4.8-5.2
		c2-0.5,4.1-0.5,6,0c5.4,1.6,6.3,8.8,1.3,11.5c-2.9,1.6-7.2,1-10,1V36.3z M145.3,32.4c1.8-0.1,6.2,0.4,9-1c3.5-1.7,2.9-6.7-0.8-7.7
		c-1.6-0.4-3.4-0.4-5,0c-1.8,0.5-3.2,1.6-3.2,3.2V32.4z"/>
	<path class="st0" d="M177.2,42c-0.7,0-1.4,0-2.1,0V26.9c-0.2-2.6-2.6-3.8-5-3.8c-2.7,0.1-5.3,1.7-5.3,4.3V42h-2.1V21.5h2.1v2
		c1.5-1.7,3.7-2.2,5.7-2.2c2.5,0,5,1,5.8,3c1.1-2,3.8-2.9,6.1-2.9c3.6,0,7.3,1.9,7.3,5.8V42h-2.1V27.1c0-2.7-2.6-3.8-5.2-3.8
		c-2.5,0-5,1.1-5.2,3.6V42z"/>
	<path class="st0" d="M206.5,27.1c0-0.6-0.1-1.2-0.5-1.7c-0.7-1-2-1.6-3.5-1.9c-1.1-0.2-2.1-0.2-3.3,0c-1.5,0.3-3,0.9-3.8,2.2
		l-1.8-1.1c2.5-4,11.4-4.2,14.1-0.4c0.7,1,0.9,2,0.9,3.1v11c0,1.5,1,2,2,2V42c-1.8,0.1-3.1-0.4-3.8-1.7c-1.8,1.8-4,2.2-6.1,2.2
		c-1,0-2-0.2-3-0.4c-5.7-1.5-6.3-8.4-2.1-11.2c2.6-1.8,6.7-2,10.8-1.2V27.1z M206.5,31.7c-3.1-0.8-7.1-0.9-9.5,0.8
		c-2.9,2-2.7,6.5,1.3,7.7c0.8,0.2,1.6,0.3,2.5,0.3c2.2,0,5.7-0.8,5.7-3.5V31.7z"/>
	<path class="st0" d="M215,36.9c1.5,3.6,6.2,3.6,8.7,2.9c1.8-0.5,3.3-1.6,3.3-3.3c0-2.9-2.9-3.3-5.8-3.6c-3.8-0.5-7.6-1-7.6-5.8
		c0-2.9,2.1-4.7,4.8-5.5c3.3-0.9,8.6-0.5,10.2,3l-1.7,1.1c-1.5-2.6-5.4-2.8-8-2c-1.8,0.5-3.3,1.7-3.3,3.4c0,2.9,2.9,3.3,5.8,3.6
		c3.8,0.5,7.6,1,7.6,5.8c0,2.8-2.1,4.6-4.8,5.3c-3.6,1-9.6,0.3-11.1-3.8L215,36.9z"/>
	<path class="st2" d="M234.6,36.3c0,0.7,0.1,1.2,0.5,1.8c0.7,1,2,1.6,3.5,1.9c1.1,0.2,2.2,0.2,3.3,0c1.5-0.2,3-0.8,3.9-2.1l1.8,1.1
		c-1.2,2-3.3,2.8-5.4,3.1c-1.3,0.2-2.4,0.3-3.6,0c-2.1-0.3-4-1.3-5.1-2.8c-0.7-1-0.9-2-0.9-3.2v-9.3c0-2.8,2.1-4.5,4.8-5.2
		c2-0.5,4.1-0.5,6,0c5.4,1.6,6.3,8.8,1.3,11.5c-2.9,1.6-7.2,1-10,1V36.3z M234.6,32.4c1.8-0.1,6.2,0.4,9-1c3.5-1.7,2.9-6.7-0.8-7.7
		c-1.6-0.4-3.4-0.4-5,0c-1.8,0.5-3.2,1.6-3.2,3.2V32.4z"/>
	<path class="st2" d="M257.6,31.8l-4.3-4.1c-1.4-1.3-1.6-2.1-1.6-3.5v-2.6h2.1v2.6c0,0.9,0.1,1.2,0.8,1.8l4.8,4.6h0l4.8-4.6
		c0.7-0.6,0.8-0.9,0.8-1.8v-2.6h2.1v2.6c0,1.4-0.3,2.2-1.6,3.5l-4.3,4.1l4.3,4.1c1.4,1.3,1.6,2.1,1.6,3.5V42h-2.1v-2.6
		c0-0.8-0.1-1.2-0.8-1.8l-4.8-4.6h0l-4.8,4.6c-0.6,0.6-0.8,1-0.8,1.8V42h-2.1v-2.6c0-1.4,0.2-2.2,1.6-3.5L257.6,31.8z"/>
	<path class="st2" d="M271.2,51c0-9.8,0-19.6,0-29.4h1.9v2.3c1.7-2.4,5.8-3.2,8.9-2.3c2.7,0.7,4.8,2.5,4.8,5.2v9.5
		c0,6.2-10.1,7.7-13.5,3.7V51H271.2z M273.3,36.6c0,4.6,11.4,5,11.4-0.2v-9.5h0c0-1.6-1.4-2.7-3.3-3.2c-0.8-0.2-1.6-0.3-2.5-0.3
		c-2.6,0-5.7,1.3-5.7,4.4V36.6z"/>
	<path class="st2" d="M293.2,36.3c0,0.7,0.1,1.2,0.5,1.8c0.7,1,2,1.6,3.5,1.9c1.1,0.2,2.2,0.2,3.3,0c1.5-0.2,3-0.8,3.9-2.1l1.8,1.1
		c-1.2,2-3.3,2.8-5.4,3.1c-1.3,0.2-2.4,0.3-3.6,0c-2.1-0.3-4-1.3-5.1-2.8c-0.7-1-0.9-2-0.9-3.2v-9.3c0-2.8,2.1-4.5,4.8-5.2
		c2-0.5,4.1-0.5,6,0c5.4,1.6,6.3,8.8,1.3,11.5c-2.9,1.6-7.2,1-10,1V36.3z M293.2,32.4c1.8-0.1,6.2,0.4,9-1c3.5-1.7,2.9-6.7-0.8-7.7
		c-1.6-0.4-3.4-0.4-5,0c-1.8,0.5-3.2,1.6-3.2,3.2V32.4z"/>
	<path class="st2" d="M310.5,42v-9.3v-5.3v-5.8h2v2.3c1.8-2.5,5.8-3,8.7-2.3l-0.3,2c-2.8-0.9-8.3,0.5-8.3,3.8V42H310.5z"/>
	<path class="st2" d="M328,12.7v8.8h5v1.9c-1.7,0-3.3,0-5,0v12.8c0,3.5,2.6,3.8,5.3,3.9v1.9c-3.8,0.2-7.4-1.2-7.4-5.8V23.4h-3.6
		v-1.9h3.6v-8.8H328z"/>
	<path class="st2" d="M351.6,36.6c0,2.6-1.8,4.3-4.2,5.1c-1.8,0.6-3.7,0.7-5.6,0.4c-3.1-0.5-5.8-2.3-5.8-5.5v-9.7
		c0-2.8,2.1-4.5,4.8-5.2c1-0.3,2-0.4,3-0.4c1,0,2.1,0.1,3,0.4c2.7,0.7,4.8,2.5,4.8,5.2V36.6z M349.5,36.6v-9.7
		c0-1.6-1.4-2.7-3.2-3.2c-0.8-0.2-1.6-0.3-2.5-0.3c-0.9,0-1.7,0.1-2.5,0.3c-1.8,0.5-3.2,1.5-3.2,3.2v9.7c0,1.9,1.9,3.1,4,3.5
		c1.5,0.2,3.1,0.2,4.6-0.3C348.3,39.2,349.5,38.1,349.5,36.6z"/>
	<path class="st2" d="M357,36.9c1.5,3.6,6.2,3.6,8.7,2.9c1.8-0.5,3.3-1.6,3.3-3.3c0-2.9-2.9-3.3-5.8-3.6c-3.8-0.5-7.6-1-7.6-5.8
		c0-2.9,2.1-4.7,4.8-5.5c3.3-0.9,8.6-0.5,10.2,3l-1.7,1.1c-1.5-2.6-5.4-2.8-8-2c-1.8,0.5-3.3,1.7-3.3,3.4c0,2.9,2.9,3.3,5.8,3.6
		c3.8,0.5,7.6,1,7.6,5.8c0,2.8-2.1,4.6-4.8,5.3c-3.6,1-9.6,0.3-11.1-3.8L357,36.9z"/>
</g>
</svg>
