<?xml version="1.0" encoding="UTF-8"?>
<svg id="Lager_1" data-name="Lager 1" xmlns="http://www.w3.org/2000/svg" viewBox="0 0 1920 742.73">
  <g>
    <path d="M1105.15,350.43c-5.93,4.55-11.99,10.94-16.49,17.68v-28.87h-48.4v163.14h48.4v-63.65c-.35-8.76,1.84-17.28,6.22-25.58,4.38-8.3,10.6-14.98,18.67-20.05,8.06-5.07,15.4-5.46,29.04-5.46v-48.4h-10.43c-8.25,0-16.37,3.04-27.01,11.19Z" fill="#162b40"/>
    <path d="M1641.42,413.27c-5.3-3.92-11.64-7.03-19.01-9.33-5.3-1.84-10.72-3.46-16.25-4.84-5.53-1.38-10.08-3.34-13.65-5.88-3.58-2.53-5.25-5.99-5.01-10.37,0-2.07,.8-4.03,2.42-5.88,1.61-1.84,3.86-3.34,6.74-4.49,2.88-1.15,6.4-1.61,10.54-1.38,4.61,.23,9.62,1.56,15.04,3.98,5.41,2.42,12.33,6.36,16.9,9.48l16.12-29.01c-7.84-5.76-16.13-9.91-24.89-12.45-8.76-2.53-19.48-3.8-32.15-3.8-14.06,0-25.53,2.59-34.4,7.78-8.87,5.19-15.33,11.64-19.36,19.36-4.03,7.72-6.05,15.38-6.05,22.99,0,9.91,3.05,19.07,9.16,27.48,6.1,8.42,16.07,14.81,29.9,19.19,5.53,1.62,10.72,3.17,15.56,4.67,4.84,1.5,8.82,3.4,11.93,5.7,3.11,2.31,4.67,5.42,4.67,9.33,0,2.76-.92,5.01-2.77,6.74-1.85,1.73-4.32,3-7.43,3.8-3.11,.81-6.63,1.21-10.54,1.21-5.07,0-10.78-1.44-17.11-4.32-6.34-2.88-17.33-9.13-25.15-15.02l-15.47,27.3c7.37,7.84,16.42,13.95,27.14,18.32,10.72,4.38,22.3,6.57,34.74,6.57,14.75,0,26.91-2.54,36.47-7.61,9.56-5.07,16.71-11.69,21.43-19.88,4.72-8.18,7.09-16.88,7.09-26.1,0-7.61-1.44-14.11-4.32-19.53-2.88-5.41-6.97-10.08-12.27-14Z" fill="#162b40"/>
    <path d="M1906.39,427.27c-2.88-5.41-6.97-10.08-12.27-14-5.3-3.92-11.64-7.03-19.01-9.33-5.3-1.84-10.72-3.46-16.25-4.84-5.53-1.38-10.08-3.34-13.65-5.88-3.58-2.53-5.24-5.99-5.01-10.37,0-2.07,.81-4.03,2.42-5.88,1.61-1.84,3.86-3.34,6.74-4.49,2.88-1.15,6.4-1.61,10.54-1.38,4.61,.23,9.62,1.56,15.04,3.98,5.41,2.42,12.32,6.36,16.9,9.48l16.12-29.01c-7.84-5.76-16.13-9.91-24.89-12.45-8.76-2.53-19.48-3.8-32.15-3.8-14.06,0-25.53,2.59-34.4,7.78-8.87,5.19-15.33,11.64-19.36,19.36-4.04,7.72-6.05,15.38-6.05,22.99,0,9.91,3.05,19.07,9.16,27.48,6.1,8.42,16.08,14.81,29.9,19.19,5.53,1.62,10.72,3.17,15.56,4.67,4.84,1.5,8.81,3.4,11.93,5.7,3.11,2.31,4.67,5.42,4.67,9.33,0,2.76-.92,5.01-2.76,6.74-1.85,1.73-4.32,3-7.43,3.8-3.11,.81-6.63,1.21-10.54,1.21-5.07,0-10.78-1.44-17.11-4.32-6.34-2.88-17.33-9.13-25.15-15.02l-15.47,27.3c7.37,7.84,16.42,13.95,27.14,18.32,10.72,4.38,22.3,6.57,34.74,6.57,14.75,0,26.9-2.54,36.47-7.61,9.56-5.07,16.71-11.69,21.43-19.88,4.72-8.18,7.09-16.88,7.09-26.1,0-7.61-1.44-14.11-4.32-19.53Z" fill="#162b40"/>
    <rect x="1698.46" y="339.29" width="48.4" height="163.08" fill="#162b40"/>
    <polygon points="1430.73 420.24 1390.49 339.23 1333.1 339.23 1428.48 502.37 1429.86 502.37 1519.97 339.23 1466.05 339.23 1430.73 420.24" fill="#162b40"/>
    <circle cx="1722.66" cy="293.59" r="24.2" fill="#162b40"/>
    <path d="M1289.48,349.24c-12.47-6.67-26.46-10.01-41.96-10.01s-30.58,3.49-43.44,10.45c-12.86,6.97-22.87,16.64-30.04,29.01-7.17,12.37-10.75,26.41-10.75,42.11s3.73,29.7,11.19,41.96c7.46,12.27,17.96,21.94,31.51,29.01,13.55,7.07,29.35,10.6,47.41,10.6,14.33,0,26.99-2.21,37.99-6.63,10.99-4.42,20.12-10.75,27.39-18.99l-24.44-26.5c-5.3,5.11-11.14,8.94-17.52,11.48-6.38,2.55-13.69,3.83-21.94,3.83-9.62,0-17.87-1.71-24.74-5.15-6.87-3.43-12.27-8.39-16.2-14.87-2.16-3.56-3.71-7.5-4.68-11.78h119.82c.19-1.96,.39-4.07,.59-6.33,.19-2.25,.29-4.27,.29-6.04,0-17.08-3.64-31.7-10.9-43.88-7.26-12.17-17.13-21.59-29.59-28.27Zm-80.78,57.72c.76-4.93,2.21-9.41,4.37-13.4,3.34-6.18,8-10.99,13.99-14.43,5.99-3.43,12.91-5.15,20.76-5.15s14.72,1.72,20.61,5.15c5.89,3.44,10.5,8.2,13.84,14.28,2.21,4.04,3.63,8.56,4.29,13.55h-77.86Z" fill="#162b40"/>
    <path d="M905.45,339.23h-77.09v243.78h48.4v-80.55h37.68c38.72,0,88.84-21.92,88.84-81.61s-50.13-81.61-97.83-81.61Zm8.64,114.49h-37.34v-65.74h37.68c19.14,0,38.72,8.38,38.72,32.87s-18.84,32.87-39.06,32.87Z" fill="#162b40"/>
  </g>
  <g>
    <path d="M302.52,502.52l-117.17,233.13h80.56s35.07,0,51.79-31.52l85.11-169.34h0c16.23-32.28,52.13-32.24,52.13-32.24l-152.4-.04Z" fill="#3ba4ff"/>
    <path d="M184.85,269.39c-96.17,0-174.85,78.68-174.85,174.85h0c0,96.17,78.68,174.85,174.85,174.85h22.81s36.26,0,52.52-32.28l42.35-84.29h-57.18s-60.03,0-60.03,0c-32.21,0-58.31-26.11-58.31-58.31h0c0-32.21,26.11-58.31,58.31-58.31h139.9s35.68,.12,51.94-32.17l42.43-84.28-234.73-.06Z" fill="#162b40"/>
    <path d="M536.94,502.58c96.17,0,174.85-78.68,174.85-174.85h0c0-96.17-78.68-174.85-174.85-174.85h-22.81s-35.87,0-52.13,32.29l-42.43,84.28h116.9c32.21,0,58.31,26.11,58.31,58.31h0c0,32.21-26.11,58.31-58.31,58.31h-139.71s-35.73,0-51.9,32.17l-42.34,84.28,234.42,.06Z" fill="#162b40"/>
    <circle cx="585.89" cy="68.28" r="58.28" fill="#162b40"/>
    <circle cx="184.78" cy="184.85" r="58.28" fill="#162b40"/>
  </g>
</svg>